<svg width="58" height="58" viewBox="0 0 58 58" fill="none" xmlns="http://www.w3.org/2000/svg">
<path fill-rule="evenodd" clip-rule="evenodd" d="M10.4804 38.8383L9.52821 47.5814C9.44461 48.3489 10.0926 48.997 10.8603 48.9134L19.6031 47.9613C20.4241 47.8718 21.1899 47.5047 21.7739 46.9206L48.336 20.3585C49.7517 18.9428 49.7517 16.6476 48.336 15.232L43.2096 10.1055C41.7939 8.68979 39.4988 8.68979 38.0831 10.1055L11.5208 36.6677C10.9369 37.2516 10.5698 38.0174 10.4804 38.8383ZM45.7729 7.54219L50.8994 12.6687C53.7308 15.5 53.7308 20.0904 50.8994 22.9218L24.3371 49.484C23.1692 50.652 21.6375 51.3859 19.9956 51.5647L11.2527 52.5169C8.18217 52.8514 5.5901 50.2593 5.92452 47.1889L6.87671 38.4459C7.05554 36.804 7.78966 35.2723 8.95756 34.1043L35.5197 7.54219C38.3511 4.71087 42.9415 4.71087 45.7729 7.54219Z" fill="#412828"/>
<path fill-rule="evenodd" clip-rule="evenodd" d="M48.336 15.232L43.2095 10.1055C41.7938 8.68979 39.4987 8.68979 38.083 10.1055L35.0071 13.1814L45.26 23.4344L48.336 20.3585C49.7517 18.9428 49.7517 16.6476 48.336 15.232ZM45.26 28.561L29.8806 13.1814L35.5197 7.54219C38.351 4.71087 42.9415 4.71087 45.7729 7.54219L50.8993 12.6687C53.7307 15.5 53.7307 20.0905 50.8993 22.9218L45.26 28.561Z" fill="#412828"/>
</svg>
