<svg width="155" height="79" viewBox="0 0 155 79" fill="none" xmlns="http://www.w3.org/2000/svg">
<g clip-path="url(#clip0_1_6)">
<path d="M82.0375 53.8072C81.7182 53.394 81.5213 52.8995 81.469 52.38C81.4168 51.8604 81.5113 51.3366 81.7419 50.8681C82.3469 49.6925 82.5841 48.3484 82.4294 47.025C82.3026 46.0807 81.9907 45.1707 81.5116 44.3472C81.0386 43.5344 80.406 42.8258 79.6519 42.2641C77.0818 40.3325 75.2783 37.5536 74.5609 34.4197C68.6897 42.1162 70.9412 46.4853 73.7531 50.3353C74.0828 50.7866 74.2565 51.3331 74.2478 51.892C74.2391 52.4508 74.0486 52.9916 73.705 53.4325C73.3549 53.8786 72.8852 54.216 72.3506 54.4053C71.8222 54.5908 71.2512 54.6183 70.7075 54.4844C66.9091 53.5562 63.3341 51.7894 60.9106 48.9741C59.5369 47.4102 58.4793 45.595 57.7962 43.6287C57.1055 41.6458 56.7986 39.5493 56.8922 37.4516C56.8922 37.4516 56.435 28.985 66.6444 20.6903C66.6444 20.6903 78.71 10.4534 74.5231 2.88406C74.3689 2.51172 74.3231 2.10331 74.3913 1.70608C74.4594 1.30885 74.6386 0.939018 74.9081 0.639369C75.1701 0.345575 75.5161 0.139496 75.8992 0.0490985C76.2824 -0.0412991 76.684 -0.0116382 77.0497 0.134056L77.5516 0.333431C82.0962 3.20618 85.6482 7.40618 87.7266 12.3647C89.7203 17.2219 89.7066 22.8834 88.3591 27.9262C89.4762 26.9225 90.4078 25.7228 91.1125 24.3753L91.2122 24.1553C91.8928 22.5156 94.0344 23.0381 94.8387 24.1106C95.1344 24.5816 102.717 35.6022 98.6441 44.9006C97.1547 47.7178 94.9794 50.1142 92.3191 51.8684C90.0868 53.3498 87.5924 54.3916 84.9697 54.9381C84.4276 55.0523 83.864 55.0069 83.3472 54.8075C82.8257 54.6047 82.3718 54.2593 82.0375 53.8106V53.8072ZM75.9669 27.1287C76.2878 26.9615 76.6597 26.9202 77.0095 27.0131C77.3593 27.1059 77.6618 27.3262 77.8575 27.6306C77.995 27.8334 78.0844 28.0637 78.1153 28.3112L78.27 29.5109C78.3387 31.2675 78.3181 33.1031 79.0022 34.7909C79.7103 36.5234 80.8103 38.0566 82.2059 39.2528C84.0039 40.4359 85.3957 42.142 86.1934 44.1409C86.9497 46.0797 87.0528 48.2316 86.4822 50.2356C88.228 49.6849 89.8506 48.8013 91.2603 47.6334L91.6144 47.3447C92.7694 46.3925 93.7216 45.2031 94.4091 43.8487C95.1 42.4978 95.5159 41.0128 95.6259 39.4866C95.8494 35.9631 94.6497 32.4259 92.7831 29.2703C91.9306 30.5078 90.755 31.4669 89.3972 32.0341C88.5481 32.395 87.6475 32.6184 86.7297 32.6872C86.204 32.721 85.6798 32.6016 85.2206 32.3434C84.7544 32.0785 84.372 31.6878 84.1172 31.2159C83.9063 30.8354 83.7857 30.4115 83.7648 29.977C83.744 29.5425 83.8234 29.1089 83.9969 28.71C85.4131 25.3687 85.8531 21.6631 85.2516 18.0641C84.5394 13.9464 82.5673 10.1511 79.6072 7.20156C79.0709 14.7812 71.2987 21.8384 69.7037 23.3578C69.4565 23.5908 69.1996 23.8132 68.9337 24.0247C60.5944 30.7794 61.165 36.9325 61.165 37.2041C60.9994 39.6484 61.5475 42.0883 62.7428 44.2269C63.9975 46.4441 65.8022 48.2728 67.9678 49.5206C65.4687 44.0275 65.4687 37.4344 74.6916 27.9812L75.9703 27.1219L75.9669 27.1287Z" fill="#AC8561"/>
</g>
<path d="M5.312 75.128C4.384 75.128 3.55733 74.9413 2.832 74.568C2.10667 74.184 1.536 73.656 1.12 72.984C0.714667 72.312 0.512 71.5493 0.512 70.696C0.512 69.832 0.714667 69.0693 1.12 68.408C1.536 67.736 2.10667 67.2133 2.832 66.84C3.55733 66.456 4.384 66.264 5.312 66.264C6.21867 66.264 7.008 66.456 7.68 66.84C8.352 67.2133 8.848 67.752 9.168 68.456L7.232 69.496C7.008 69.0907 6.72533 68.792 6.384 68.6C6.05333 68.408 5.69067 68.312 5.296 68.312C4.86933 68.312 4.48533 68.408 4.144 68.6C3.80267 68.792 3.53067 69.064 3.328 69.416C3.136 69.768 3.04 70.1947 3.04 70.696C3.04 71.1973 3.136 71.624 3.328 71.976C3.53067 72.328 3.80267 72.6 4.144 72.792C4.48533 72.984 4.86933 73.08 5.296 73.08C5.69067 73.08 6.05333 72.9893 6.384 72.808C6.72533 72.616 7.008 72.312 7.232 71.896L9.168 72.952C8.848 73.6453 8.352 74.184 7.68 74.568C7.008 74.9413 6.21867 75.128 5.312 75.128ZM15.7903 66.264C16.4729 66.264 17.0809 66.4027 17.6143 66.68C18.1583 66.9467 18.5849 67.3627 18.8943 67.928C19.2036 68.4827 19.3583 69.1973 19.3583 70.072V75H16.8623V70.456C16.8623 69.7627 16.7076 69.2507 16.3983 68.92C16.0996 68.5893 15.6729 68.424 15.1183 68.424C14.7236 68.424 14.3663 68.5093 14.0463 68.68C13.7369 68.84 13.4916 69.0907 13.3103 69.432C13.1396 69.7733 13.0543 70.2107 13.0543 70.744V75H10.5583V63.128H13.0543V68.776L12.4943 68.056C12.8036 67.48 13.2463 67.0373 13.8223 66.728C14.3983 66.4187 15.0543 66.264 15.7903 66.264ZM26.9008 75V73.32L26.7408 72.952V69.944C26.7408 69.4107 26.5754 68.9947 26.2448 68.696C25.9248 68.3973 25.4288 68.248 24.7568 68.248C24.2981 68.248 23.8448 68.3227 23.3968 68.472C22.9594 68.6107 22.5861 68.8027 22.2768 69.048L21.3808 67.304C21.8501 66.9733 22.4154 66.7173 23.0768 66.536C23.7381 66.3547 24.4101 66.264 25.0928 66.264C26.4048 66.264 27.4234 66.5733 28.1488 67.192C28.8741 67.8107 29.2368 68.776 29.2368 70.088V75H26.9008ZM24.2768 75.128C23.6048 75.128 23.0288 75.016 22.5488 74.792C22.0688 74.5573 21.7008 74.2427 21.4448 73.848C21.1888 73.4533 21.0608 73.0107 21.0608 72.52C21.0608 72.008 21.1834 71.56 21.4288 71.176C21.6848 70.792 22.0848 70.4933 22.6288 70.28C23.1728 70.056 23.8821 69.944 24.7568 69.944H27.0448V71.4H25.0288C24.4421 71.4 24.0368 71.496 23.8128 71.688C23.5994 71.88 23.4928 72.12 23.4928 72.408C23.4928 72.728 23.6154 72.984 23.8608 73.176C24.1168 73.3573 24.4634 73.448 24.9008 73.448C25.3168 73.448 25.6901 73.352 26.0208 73.16C26.3514 72.9573 26.5914 72.664 26.7408 72.28L27.1248 73.432C26.9434 73.9867 26.6128 74.408 26.1328 74.696C25.6528 74.984 25.0341 75.128 24.2768 75.128ZM31.4958 75V63.128H33.9918V75H31.4958ZM36.3083 75V63.128H38.8043V75H36.3083ZM45.3928 75.128C44.4114 75.128 43.5474 74.936 42.8008 74.552C42.0648 74.168 41.4941 73.6453 41.0888 72.984C40.6834 72.312 40.4808 71.5493 40.4808 70.696C40.4808 69.832 40.6781 69.0693 41.0728 68.408C41.4781 67.736 42.0274 67.2133 42.7208 66.84C43.4141 66.456 44.1981 66.264 45.0728 66.264C45.9154 66.264 46.6728 66.4453 47.3448 66.808C48.0274 67.16 48.5661 67.672 48.9608 68.344C49.3554 69.0053 49.5528 69.8 49.5528 70.728C49.5528 70.824 49.5474 70.936 49.5368 71.064C49.5261 71.1813 49.5154 71.2933 49.5048 71.4H42.5128V69.944H48.1927L47.2328 70.376C47.2328 69.928 47.1421 69.5387 46.9608 69.208C46.7794 68.8773 46.5288 68.6213 46.2088 68.44C45.8888 68.248 45.5154 68.152 45.0888 68.152C44.6621 68.152 44.2834 68.248 43.9528 68.44C43.6328 68.6213 43.3821 68.8827 43.2008 69.224C43.0194 69.5547 42.9288 69.9493 42.9288 70.408V70.792C42.9288 71.2613 43.0301 71.6773 43.2328 72.04C43.4461 72.392 43.7394 72.664 44.1128 72.856C44.4968 73.0373 44.9448 73.128 45.4568 73.128C45.9154 73.128 46.3154 73.0587 46.6568 72.92C47.0088 72.7813 47.3288 72.5733 47.6168 72.296L48.9448 73.736C48.5501 74.184 48.0541 74.5307 47.4568 74.776C46.8594 75.0107 46.1714 75.128 45.3928 75.128ZM56.4465 66.264C57.1292 66.264 57.7372 66.4027 58.2705 66.68C58.8145 66.9467 59.2412 67.3627 59.5505 67.928C59.8598 68.4827 60.0145 69.1973 60.0145 70.072V75H57.5185V70.456C57.5185 69.7627 57.3638 69.2507 57.0545 68.92C56.7558 68.5893 56.3292 68.424 55.7745 68.424C55.3798 68.424 55.0225 68.5093 54.7025 68.68C54.3932 68.84 54.1478 69.0907 53.9665 69.432C53.7958 69.7733 53.7105 70.2107 53.7105 70.744V75H51.2145V66.392H53.5985V68.776L53.1505 68.056C53.4598 67.48 53.9025 67.0373 54.4785 66.728C55.0545 66.4187 55.7105 66.264 56.4465 66.264ZM66.3875 78.232C65.5768 78.232 64.7928 78.1307 64.0355 77.928C63.2888 77.736 62.6648 77.4427 62.1635 77.048L63.1555 75.256C63.5182 75.5547 63.9768 75.7893 64.5315 75.96C65.0968 76.1413 65.6515 76.232 66.1955 76.232C67.0808 76.232 67.7208 76.0347 68.1155 75.64C68.5208 75.2453 68.7235 74.6587 68.7235 73.88V72.584L68.8835 70.424L68.8515 68.248V66.392H71.2195V73.56C71.2195 75.16 70.8035 76.3387 69.9715 77.096C69.1395 77.8533 67.9448 78.232 66.3875 78.232ZM66.0035 74.584C65.2035 74.584 64.4782 74.4133 63.8275 74.072C63.1875 73.72 62.6702 73.2347 62.2755 72.616C61.8915 71.9867 61.6995 71.256 61.6995 70.424C61.6995 69.5813 61.8915 68.8507 62.2755 68.232C62.6702 67.6027 63.1875 67.1173 63.8275 66.776C64.4782 66.4347 65.2035 66.264 66.0035 66.264C66.7288 66.264 67.3688 66.4133 67.9235 66.712C68.4782 67 68.9102 67.4533 69.2195 68.072C69.5288 68.68 69.6835 69.464 69.6835 70.424C69.6835 71.3733 69.5288 72.1573 69.2195 72.776C68.9102 73.384 68.4782 73.8373 67.9235 74.136C67.3688 74.4347 66.7288 74.584 66.0035 74.584ZM66.4995 72.536C66.9368 72.536 67.3262 72.4507 67.6675 72.28C68.0088 72.0987 68.2755 71.848 68.4675 71.528C68.6595 71.208 68.7555 70.84 68.7555 70.424C68.7555 69.9973 68.6595 69.6293 68.4675 69.32C68.2755 69 68.0088 68.7547 67.6675 68.584C67.3262 68.4027 66.9368 68.312 66.4995 68.312C66.0622 68.312 65.6728 68.4027 65.3315 68.584C64.9902 68.7547 64.7182 69 64.5155 69.32C64.3235 69.6293 64.2275 69.9973 64.2275 70.424C64.2275 70.84 64.3235 71.208 64.5155 71.528C64.7182 71.848 64.9902 72.0987 65.3315 72.28C65.6728 72.4507 66.0622 72.536 66.4995 72.536ZM77.8146 75.128C76.8333 75.128 75.9693 74.936 75.2226 74.552C74.4866 74.168 73.916 73.6453 73.5106 72.984C73.1053 72.312 72.9026 71.5493 72.9026 70.696C72.9026 69.832 73.1 69.0693 73.4946 68.408C73.9 67.736 74.4493 67.2133 75.1426 66.84C75.836 66.456 76.62 66.264 77.4946 66.264C78.3373 66.264 79.0946 66.4453 79.7666 66.808C80.4493 67.16 80.988 67.672 81.3826 68.344C81.7773 69.0053 81.9746 69.8 81.9746 70.728C81.9746 70.824 81.9693 70.936 81.9586 71.064C81.948 71.1813 81.9373 71.2933 81.9266 71.4H74.9346V69.944H80.6146L79.6546 70.376C79.6546 69.928 79.564 69.5387 79.3826 69.208C79.2013 68.8773 78.9506 68.6213 78.6306 68.44C78.3106 68.248 77.9373 68.152 77.5106 68.152C77.084 68.152 76.7053 68.248 76.3746 68.44C76.0546 68.6213 75.804 68.8827 75.6226 69.224C75.4413 69.5547 75.3506 69.9493 75.3506 70.408V70.792C75.3506 71.2613 75.452 71.6773 75.6546 72.04C75.868 72.392 76.1613 72.664 76.5346 72.856C76.9186 73.0373 77.3666 73.128 77.8786 73.128C78.3373 73.128 78.7373 73.0587 79.0786 72.92C79.4306 72.7813 79.7506 72.5733 80.0386 72.296L81.3666 73.736C80.972 74.184 80.476 74.5307 79.8786 74.776C79.2813 75.0107 78.5933 75.128 77.8146 75.128ZM89.2556 78.232C88.8076 78.232 88.365 78.1627 87.9276 78.024C87.4903 77.8853 87.133 77.6933 86.8556 77.448L87.7676 75.672C87.9596 75.8427 88.1783 75.976 88.4236 76.072C88.6796 76.168 88.9303 76.216 89.1756 76.216C89.5276 76.216 89.805 76.1307 90.0076 75.96C90.221 75.8 90.413 75.528 90.5836 75.144L91.0316 74.088L91.2236 73.816L94.3116 66.392H96.7116L92.8236 75.528C92.5463 76.2213 92.2263 76.7653 91.8636 77.16C91.5116 77.5547 91.117 77.832 90.6796 77.992C90.253 78.152 89.7783 78.232 89.2556 78.232ZM90.7276 75.336L86.8876 66.392H89.4636L92.4396 73.592L90.7276 75.336ZM101.592 75.128C100.674 75.128 99.8584 74.936 99.1438 74.552C98.4398 74.168 97.8798 73.6453 97.4638 72.984C97.0584 72.312 96.8558 71.5493 96.8558 70.696C96.8558 69.832 97.0584 69.0693 97.4638 68.408C97.8798 67.736 98.4398 67.2133 99.1438 66.84C99.8584 66.456 100.674 66.264 101.592 66.264C102.498 66.264 103.309 66.456 104.024 66.84C104.738 67.2133 105.298 67.7307 105.704 68.392C106.109 69.0533 106.312 69.8213 106.312 70.696C106.312 71.5493 106.109 72.312 105.704 72.984C105.298 73.6453 104.738 74.168 104.024 74.552C103.309 74.936 102.498 75.128 101.592 75.128ZM101.592 73.08C102.008 73.08 102.381 72.984 102.712 72.792C103.042 72.6 103.304 72.328 103.496 71.976C103.688 71.6133 103.784 71.1867 103.784 70.696C103.784 70.1947 103.688 69.768 103.496 69.416C103.304 69.064 103.042 68.792 102.712 68.6C102.381 68.408 102.008 68.312 101.592 68.312C101.176 68.312 100.802 68.408 100.472 68.6C100.141 68.792 99.8744 69.064 99.6718 69.416C99.4798 69.768 99.3838 70.1947 99.3838 70.696C99.3838 71.1867 99.4798 71.6133 99.6718 71.976C99.8744 72.328 100.141 72.6 100.472 72.792C100.802 72.984 101.176 73.08 101.592 73.08ZM111.612 75.128C110.897 75.128 110.257 74.9893 109.692 74.712C109.137 74.4347 108.705 74.0133 108.396 73.448C108.087 72.872 107.932 72.1413 107.932 71.256V66.392H110.428V70.888C110.428 71.6027 110.577 72.1307 110.876 72.472C111.185 72.8027 111.617 72.968 112.172 72.968C112.556 72.968 112.897 72.888 113.196 72.728C113.495 72.5573 113.729 72.3013 113.9 71.96C114.071 71.608 114.156 71.1707 114.156 70.648V66.392H116.652V75H114.284V72.632L114.716 73.32C114.428 73.9173 114.001 74.3707 113.436 74.68C112.881 74.9787 112.273 75.128 111.612 75.128ZM118.965 75V66.392H121.349V68.824L121.013 68.12C121.269 67.512 121.679 67.0533 122.245 66.744C122.81 66.424 123.498 66.264 124.309 66.264V68.568C124.202 68.5573 124.106 68.552 124.021 68.552C123.935 68.5413 123.845 68.536 123.749 68.536C123.066 68.536 122.511 68.7333 122.085 69.128C121.669 69.512 121.461 70.1147 121.461 70.936V75H118.965ZM128.751 75.128C128.015 75.128 127.306 75.0427 126.623 74.872C125.951 74.6907 125.418 74.4667 125.023 74.2L125.855 72.408C126.25 72.6533 126.714 72.856 127.247 73.016C127.791 73.1653 128.324 73.24 128.847 73.24C129.423 73.24 129.828 73.1707 130.063 73.032C130.308 72.8933 130.431 72.7013 130.431 72.456C130.431 72.2533 130.335 72.104 130.143 72.008C129.962 71.9013 129.716 71.8213 129.407 71.768C129.098 71.7147 128.756 71.6613 128.383 71.608C128.02 71.5547 127.652 71.4853 127.279 71.4C126.906 71.304 126.564 71.1653 126.255 70.984C125.946 70.8027 125.695 70.5573 125.503 70.248C125.322 69.9387 125.231 69.5387 125.231 69.048C125.231 68.504 125.386 68.024 125.695 67.608C126.015 67.192 126.474 66.8667 127.071 66.632C127.668 66.3867 128.383 66.264 129.215 66.264C129.802 66.264 130.399 66.328 131.007 66.456C131.615 66.584 132.122 66.7707 132.527 67.016L131.695 68.792C131.279 68.5467 130.858 68.3813 130.431 68.296C130.015 68.2 129.61 68.152 129.215 68.152C128.66 68.152 128.255 68.2267 127.999 68.376C127.743 68.5253 127.615 68.7173 127.615 68.952C127.615 69.1653 127.706 69.3253 127.887 69.432C128.079 69.5387 128.33 69.624 128.639 69.688C128.948 69.752 129.284 69.8107 129.647 69.864C130.02 69.9067 130.394 69.976 130.767 70.072C131.14 70.168 131.476 70.3067 131.775 70.488C132.084 70.6587 132.335 70.8987 132.527 71.208C132.719 71.5067 132.815 71.9013 132.815 72.392C132.815 72.9253 132.655 73.4 132.335 73.816C132.015 74.2213 131.551 74.5413 130.943 74.776C130.346 75.0107 129.615 75.128 128.751 75.128ZM138.627 75.128C137.646 75.128 136.782 74.936 136.035 74.552C135.299 74.168 134.728 73.6453 134.323 72.984C133.918 72.312 133.715 71.5493 133.715 70.696C133.715 69.832 133.912 69.0693 134.307 68.408C134.712 67.736 135.262 67.2133 135.955 66.84C136.648 66.456 137.432 66.264 138.307 66.264C139.15 66.264 139.907 66.4453 140.579 66.808C141.262 67.16 141.8 67.672 142.195 68.344C142.59 69.0053 142.787 69.8 142.787 70.728C142.787 70.824 142.782 70.936 142.771 71.064C142.76 71.1813 142.75 71.2933 142.739 71.4H135.747V69.944H141.427L140.467 70.376C140.467 69.928 140.376 69.5387 140.195 69.208C140.014 68.8773 139.763 68.6213 139.443 68.44C139.123 68.248 138.75 68.152 138.323 68.152C137.896 68.152 137.518 68.248 137.187 68.44C136.867 68.6213 136.616 68.8827 136.435 69.224C136.254 69.5547 136.163 69.9493 136.163 70.408V70.792C136.163 71.2613 136.264 71.6773 136.467 72.04C136.68 72.392 136.974 72.664 137.347 72.856C137.731 73.0373 138.179 73.128 138.691 73.128C139.15 73.128 139.55 73.0587 139.891 72.92C140.243 72.7813 140.563 72.5733 140.851 72.296L142.179 73.736C141.784 74.184 141.288 74.5307 140.691 74.776C140.094 75.0107 139.406 75.128 138.627 75.128ZM144.449 75V63.128H146.945V75H144.449ZM149.565 75V66.2C149.565 65.2293 149.853 64.456 150.429 63.88C151.005 63.2933 151.827 63 152.893 63C153.256 63 153.603 63.0373 153.933 63.112C154.275 63.1867 154.563 63.304 154.797 63.464L154.141 65.272C154.003 65.176 153.848 65.1013 153.677 65.048C153.507 64.9947 153.325 64.968 153.133 64.968C152.771 64.968 152.488 65.0747 152.285 65.288C152.093 65.4907 151.997 65.8 151.997 66.216V67.016L152.061 68.088V75H149.565ZM148.237 68.504V66.584H154.205V68.504H148.237Z" fill="#AC8561"/>
<defs>
<clipPath id="clip0_1_6">
<rect width="55" height="55" fill="white" transform="translate(50)"/>
</clipPath>
</defs>
</svg>
